<svg xmlns="http://www.w3.org/2000/svg" width="400" height="300" viewBox="0 0 400 300">
  <rect width="400" height="300" fill="#0d0f14"/>
  <line x1="0" y1="60" x2="400" y2="60" stroke="#00ff4108" stroke-width="1"/>
  <line x1="0" y1="120" x2="400" y2="120" stroke="#00ff4108" stroke-width="1"/>
  <line x1="0" y1="180" x2="400" y2="180" stroke="#00ff4108" stroke-width="1"/>
  <line x1="0" y1="240" x2="400" y2="240" stroke="#00ff4108" stroke-width="1"/>
  <line x1="80" y1="0" x2="80" y2="300" stroke="#00ff4108" stroke-width="1"/>
  <line x1="200" y1="0" x2="200" y2="300" stroke="#00ff4108" stroke-width="1"/>
  <line x1="320" y1="0" x2="320" y2="300" stroke="#00ff4108" stroke-width="1"/>
  <rect x="30" y="30" width="80" height="40" rx="4" fill="#1a0707" stroke="#ff004066" stroke-width="1"/>
  <text x="70" y="48" font-family="Courier New" font-size="9" fill="#ff6060" text-anchor="middle">ATTACKER</text>
  <text x="70" y="61" font-family="Courier New" font-size="8" fill="#4a4a4a" text-anchor="middle">192.168.8.2</text>
  <line x1="70" y1="70" x2="70" y2="103" stroke="#00ff4166" stroke-width="1" stroke-dasharray="3,2"/>
  <polygon points="65,101 70,111 75,101" fill="#00ff41" opacity="0.6"/>
  <rect x="30" y="113" width="80" height="50" rx="4" fill="#0a1a0a" stroke="#ffb30066" stroke-width="1"/>
  <text x="70" y="131" font-family="Courier New" font-size="9" fill="#ffb300" text-anchor="middle">M1 PIVOT</text>
  <text x="70" y="144" font-family="Courier New" font-size="7" fill="#4a7a4a" text-anchor="middle">192.168.8.10</text>
  <text x="70" y="156" font-family="Courier New" font-size="7" fill="#4a7a4a" text-anchor="middle">192.168.80.10</text>
  <line x1="110" y1="138" x2="173" y2="138" stroke="#00ff4166" stroke-width="1" stroke-dasharray="3,2"/>
  <polygon points="171,133 181,138 171,143" fill="#00ff41" opacity="0.6"/>
  <rect x="183" y="113" width="80" height="50" rx="4" fill="#0a1a0a" stroke="#ffb30066" stroke-width="1"/>
  <text x="223" y="131" font-family="Courier New" font-size="9" fill="#ffb300" text-anchor="middle">M2 PIVOT</text>
  <text x="223" y="144" font-family="Courier New" font-size="7" fill="#4a7a4a" text-anchor="middle">192.168.80.15</text>
  <text x="223" y="156" font-family="Courier New" font-size="7" fill="#4a7a4a" text-anchor="middle">172.16.25.2</text>
  <line x1="263" y1="138" x2="326" y2="138" stroke="#00ff4166" stroke-width="1" stroke-dasharray="3,2"/>
  <polygon points="324,133 334,138 324,143" fill="#00ff41" opacity="0.6"/>
  <rect x="336" y="113" width="55" height="50" rx="4" fill="#071a11" stroke="#00ff4166" stroke-width="1"/>
  <text x="363" y="133" font-family="Courier New" font-size="10" fill="#00ff41" text-anchor="middle">M3</text>
  <text x="363" y="147" font-family="Courier New" font-size="7" fill="#4a7a4a" text-anchor="middle">TARGET</text>
  <text x="363" y="158" font-family="Courier New" font-size="6" fill="#4a7a4a" text-anchor="middle">172.16.25</text>
  <text x="363" y="168" font-family="Courier New" font-size="6" fill="#4a7a4a" text-anchor="middle">.100</text>
  <rect x="0" y="200" width="400" height="100" fill="#050f05" opacity="0.95"/>
  <line x1="0" y1="200" x2="400" y2="200" stroke="#00ff4133" stroke-width="1"/>
  <text x="20" y="226" font-family="Courier New" font-size="15" fill="#00ff41" font-weight="bold">MULTI-HOP PIVOTING</text>
  <text x="20" y="246" font-family="Courier New" font-size="11" fill="#4a7a4a">Ligolo-ng · Lateral Movement · Red Team</text>
  <text x="20" y="264" font-family="Courier New" font-size="9" fill="#2a4a2a">Attacker → M1 → M2 → M3 (Target)</text>
  <rect x="20" y="274" width="52" height="13" rx="2" fill="#071a11" stroke="#00ff4133" stroke-width="1"/>
  <text x="46" y="284" font-family="Courier New" font-size="7" fill="#00ff41" text-anchor="middle">RED TEAM</text>
  <rect x="80" y="274" width="58" height="13" rx="2" fill="#0a1400" stroke="#ffb30033" stroke-width="1"/>
  <text x="109" y="284" font-family="Courier New" font-size="7" fill="#ffb300" text-anchor="middle">PIVOTING</text>
</svg>
